<svg class="marks" width="304" height="145" viewBox="0 0 304 145" version="1.1" xmlns="http://www.w3.org/2000/svg" xmlns:xlink="http://www.w3.org/1999/xlink"><rect width="304" height="145" style="fill: white;"></rect><g transform="translate(59,22)"><g class="mark-group role-frame root"><g transform="translate(0,0)"><path class="background" d="M0.5,0.5h240v80h-240Z" style="fill: none; stroke: #ddd;"></path><g><g class="mark-group role-axis"><g transform="translate(0.5,0.5)"><path class="background" d="M0,0h0v0h0Z" style="pointer-events: none; fill: none;"></path><g><g class="mark-rule role-axis-grid" style="pointer-events: none;"><line transform="translate(0,10)" x2="240" y2="0" style="fill: none; stroke: #ddd; stroke-width: 1; opacity: 1;"></line><line transform="translate(0,30)" x2="240" y2="0" style="fill: none; stroke: #ddd; stroke-width: 1; opacity: 1;"></line><line transform="translate(0,50)" x2="240" y2="0" style="fill: none; stroke: #ddd; stroke-width: 1; opacity: 1;"></line><line transform="translate(0,70)" x2="240" y2="0" style="fill: none; stroke: #ddd; stroke-width: 1; opacity: 1;"></line></g></g><path class="foreground" d="" style="pointer-events: none; display: none; fill: none;"></path></g></g><g class="mark-group role-axis"><g transform="translate(0.5,0.5)"><path class="background" d="M0,0h0v0h0Z" style="pointer-events: none; fill: none;"></path><g><g class="mark-rule role-axis-tick" style="pointer-events: none;"><line transform="translate(0,10)" x2="-5" y2="0" style="fill: none; stroke: #888; stroke-width: 1; opacity: 1;"></line><line transform="translate(0,30)" x2="-5" y2="0" style="fill: none; stroke: #888; stroke-width: 1; opacity: 1;"></line><line transform="translate(0,50)" x2="-5" y2="0" style="fill: none; stroke: #888; stroke-width: 1; opacity: 1;"></line><line transform="translate(0,70)" x2="-5" y2="0" style="fill: none; stroke: #888; stroke-width: 1; opacity: 1;"></line></g><g class="mark-text role-axis-label" style="pointer-events: none;"><text text-anchor="end" transform="translate(-7,13)" style="font-family: sans-serif; font-size: 10px; fill: #000; opacity: 1;">seq1</text><text text-anchor="end" transform="translate(-7,33)" style="font-family: sans-serif; font-size: 10px; fill: #000; opacity: 1;"> seq2</text><text text-anchor="end" transform="translate(-7,53)" style="font-family: sans-serif; font-size: 10px; fill: #000; opacity: 1;">  seq3</text><text text-anchor="end" transform="translate(-7,73)" style="font-family: sans-serif; font-size: 10px; fill: #000; opacity: 1;">   seq4</text></g><g class="mark-rule role-axis-domain" style="pointer-events: none;"><line transform="translate(0,0)" x2="0" y2="80" style="fill: none; stroke: #888; stroke-width: 1; opacity: 1;"></line></g><g class="mark-text role-axis-title" style="pointer-events: none;"><text text-anchor="middle" transform="translate(-43,40) rotate(-90) translate(0,-2)" style="font-family: sans-serif; font-size: 11px; font-weight: bold; fill: #000; opacity: 1;">mAb</text></g></g><path class="foreground" d="" style="pointer-events: none; display: none; fill: none;"></path></g></g><g class="mark-rect role-mark layer_0_marks"><path d="M0,0h20v80h-20Z" style="fill: #169cf5; opacity: 0.25;"></path><path d="M100,0h20v80h-20Z" style="fill: #169cf5; opacity: 0.25;"></path><path d="M200,0h20v80h-20Z" style="fill: #169cf5; opacity: 0.25;"></path><path d="M220,0h20v80h-20Z" style="fill: #169cf5; opacity: 0.25;"></path></g><g class="mark-rect role-mark layer_1_marks"><path d="M20,0h20v80h-20Z" style="fill: #f5e216; opacity: 0.25;"></path><path d="M40,0h20v80h-20Z" style="fill: #f5e216; opacity: 0.25;"></path><path d="M60,0h20v80h-20Z" style="fill: #f5e216; opacity: 0.25;"></path><path d="M80,0h20v80h-20Z" style="fill: #f5e216; opacity: 0.25;"></path><path d="M120,0h20v80h-20Z" style="fill: #f5e216; opacity: 0.25;"></path><path d="M140,0h20v80h-20Z" style="fill: #f5e216; opacity: 0.25;"></path><path d="M160,0h20v80h-20Z" style="fill: #f5e216; opacity: 0.25;"></path><path d="M180,0h20v80h-20Z" style="fill: #f5e216; opacity: 0.25;"></path></g><g class="mark-rect role-mark layer_2_marks"><path d="M9,2.5h2v15h-2Z" style="fill: none; opacity: 1;"></path><path d="M29,2.5h2v15h-2Z" style="fill: none; opacity: 1;"></path><path d="M49,2.5h2v15h-2Z" style="fill: none; opacity: 1;"></path><path d="M69,2.5h2v15h-2Z" style="fill: none; opacity: 1;"></path><path d="M89,2.5h2v15h-2Z" style="fill: none; opacity: 1;"></path><path d="M109,2.5h2v15h-2Z" style="fill: none; opacity: 1;"></path><path d="M129,2.5h2v15h-2Z" style="fill: none; opacity: 1;"></path><path d="M149,2.5h2v15h-2Z" style="fill: none; opacity: 1;"></path><path d="M169,2.5h2v15h-2Z" style="fill: none; opacity: 1;"></path><path d="M189,2.5h2v15h-2Z" style="fill: none; opacity: 1;"></path><path d="M209,2.5h2v15h-2Z" style="fill: none; opacity: 1;"></path><path d="M229,2.5h2v15h-2Z" style="fill: none; opacity: 1;"></path><path d="M9,22.5h2v15h-2Z" style="fill: none; opacity: 1;"></path><path d="M29,22.5h2v15h-2Z" style="fill: none; opacity: 1;"></path><path d="M49,22.5h2v15h-2Z" style="fill: none; opacity: 1;"></path><path d="M69,22.5h2v15h-2Z" style="fill: black; opacity: 1;"></path><path d="M89,22.5h2v15h-2Z" style="fill: none; opacity: 1;"></path><path d="M109,22.5h2v15h-2Z" style="fill: black; opacity: 1;"></path><path d="M129,22.5h2v15h-2Z" style="fill: none; opacity: 1;"></path><path d="M149,22.5h2v15h-2Z" style="fill: none; opacity: 1;"></path><path d="M169,22.5h2v15h-2Z" style="fill: none; opacity: 1;"></path><path d="M189,22.5h2v15h-2Z" style="fill: black; opacity: 1;"></path><path d="M209,22.5h2v15h-2Z" style="fill: none; opacity: 1;"></path><path d="M229,22.5h2v15h-2Z" style="fill: none; opacity: 1;"></path><path d="M9,42.5h2v15h-2Z" style="fill: none; opacity: 1;"></path><path d="M29,42.5h2v15h-2Z" style="fill: none; opacity: 1;"></path><path d="M49,42.5h2v15h-2Z" style="fill: none; opacity: 1;"></path><path d="M69,42.5h2v15h-2Z" style="fill: none; opacity: 1;"></path><path d="M89,42.5h2v15h-2Z" style="fill: none; opacity: 1;"></path><path d="M109,42.5h2v15h-2Z" style="fill: none; opacity: 1;"></path><path d="M129,42.5h2v15h-2Z" style="fill: none; opacity: 1;"></path><path d="M149,42.5h2v15h-2Z" style="fill: none; opacity: 1;"></path><path d="M169,42.5h2v15h-2Z" style="fill: none; opacity: 1;"></path><path d="M189,42.5h2v15h-2Z" style="fill: black; opacity: 1;"></path><path d="M209,42.5h2v15h-2Z" style="fill: black; opacity: 1;"></path><path d="M229,42.5h2v15h-2Z" style="fill: black; opacity: 1;"></path><path d="M9,62.5h2v15h-2Z" style="fill: none; opacity: 1;"></path><path d="M29,62.5h2v15h-2Z" style="fill: none; opacity: 1;"></path><path d="M49,62.5h2v15h-2Z" style="fill: none; opacity: 1;"></path><path d="M69,62.5h2v15h-2Z" style="fill: black; opacity: 1;"></path><path d="M89,62.5h2v15h-2Z" style="fill: none; opacity: 1;"></path><path d="M109,62.5h2v15h-2Z" style="fill: black; opacity: 1;"></path><path d="M129,62.5h2v15h-2Z" style="fill: none; opacity: 1;"></path><path d="M149,62.5h2v15h-2Z" style="fill: none; opacity: 1;"></path><path d="M169,62.5h2v15h-2Z" style="fill: none; opacity: 1;"></path><path d="M189,62.5h2v15h-2Z" style="fill: black; opacity: 1;"></path><path d="M209,62.5h2v15h-2Z" style="fill: black; opacity: 1;"></path><path d="M229,62.5h2v15h-2Z" style="fill: black; opacity: 1;"></path></g><g class="mark-group role-title"><g transform="translate(120,-17)"><path class="background" d="M0,0h0v0h0Z" style="pointer-events: none; fill: none;"></path><g><g class="mark-text role-title-text" style="pointer-events: none;"><text text-anchor="middle" transform="translate(0,10)" style="font-family: sans-serif; font-size: 13px; font-weight: bold; fill: #000; opacity: 1;">lineage 2 heavy chain</text></g></g><path class="foreground" d="" style="pointer-events: none; display: none; fill: none;"></path></g></g><g class="mark-group role-axis"><g transform="translate(0.5,80.5)"><path class="background" d="M0,0h0v0h0Z" style="pointer-events: none; fill: none;"></path><g><g class="mark-rule role-axis-tick" style="pointer-events: none;"><line transform="translate(10,0)" x2="0" y2="5" style="fill: none; stroke: #888; stroke-width: 1; opacity: 1;"></line><line transform="translate(30,0)" x2="0" y2="5" style="fill: none; stroke: #888; stroke-width: 1; opacity: 1;"></line><line transform="translate(50,0)" x2="0" y2="5" style="fill: none; stroke: #888; stroke-width: 1; opacity: 1;"></line><line transform="translate(70,0)" x2="0" y2="5" style="fill: none; stroke: #888; stroke-width: 1; opacity: 1;"></line><line transform="translate(90,0)" x2="0" y2="5" style="fill: none; stroke: #888; stroke-width: 1; opacity: 1;"></line><line transform="translate(110,0)" x2="0" y2="5" style="fill: none; stroke: #888; stroke-width: 1; opacity: 1;"></line><line transform="translate(130,0)" x2="0" y2="5" style="fill: none; stroke: #888; stroke-width: 1; opacity: 1;"></line><line transform="translate(150,0)" x2="0" y2="5" style="fill: none; stroke: #888; stroke-width: 1; opacity: 1;"></line><line transform="translate(170,0)" x2="0" y2="5" style="fill: none; stroke: #888; stroke-width: 1; opacity: 1;"></line><line transform="translate(190,0)" x2="0" y2="5" style="fill: none; stroke: #888; stroke-width: 1; opacity: 1;"></line><line transform="translate(210,0)" x2="0" y2="5" style="fill: none; stroke: #888; stroke-width: 1; opacity: 1;"></line><line transform="translate(230,0)" x2="0" y2="5" style="fill: none; stroke: #888; stroke-width: 1; opacity: 1;"></line></g><g class="mark-text role-axis-label" style="pointer-events: none;"><text text-anchor="end" transform="translate(9.5,7) rotate(270) translate(0,4)" style="font-family: sans-serif; font-size: 12px; fill: #000; opacity: 1;">0</text><text text-anchor="end" transform="translate(29.5,7) rotate(270) translate(0,4)" style="font-family: sans-serif; font-size: 12px; fill: #000; opacity: 0;">1</text><text text-anchor="end" transform="translate(49.5,7) rotate(270) translate(0,4)" style="font-family: sans-serif; font-size: 12px; fill: #000; opacity: 1;">2</text><text text-anchor="end" transform="translate(69.5,7) rotate(270) translate(0,4)" style="font-family: sans-serif; font-size: 12px; fill: #000; opacity: 0;">3</text><text text-anchor="end" transform="translate(89.5,7) rotate(270) translate(0,4)" style="font-family: sans-serif; font-size: 12px; fill: #000; opacity: 1;">4</text><text text-anchor="end" transform="translate(109.5,7) rotate(270) translate(0,4)" style="font-family: sans-serif; font-size: 12px; fill: #000; opacity: 0;">5</text><text text-anchor="end" transform="translate(129.5,7) rotate(270) translate(0,4)" style="font-family: sans-serif; font-size: 12px; fill: #000; opacity: 1;">6</text><text text-anchor="end" transform="translate(149.5,7) rotate(270) translate(0,4)" style="font-family: sans-serif; font-size: 12px; fill: #000; opacity: 0;">7</text><text text-anchor="end" transform="translate(169.5,7) rotate(270) translate(0,4)" style="font-family: sans-serif; font-size: 12px; fill: #000; opacity: 1;">8</text><text text-anchor="end" transform="translate(189.5,7) rotate(270) translate(0,4)" style="font-family: sans-serif; font-size: 12px; fill: #000; opacity: 0;">9</text><text text-anchor="end" transform="translate(209.5,7) rotate(270) translate(0,4)" style="font-family: sans-serif; font-size: 12px; fill: #000; opacity: 1;">10</text><text text-anchor="end" transform="translate(229.5,7) rotate(270) translate(0,4)" style="font-family: sans-serif; font-size: 12px; fill: #000; opacity: 0;">11</text></g><g class="mark-rule role-axis-domain" style="pointer-events: none;"><line transform="translate(0,0)" x2="240" y2="0" style="fill: none; stroke: #888; stroke-width: 1; opacity: 1;"></line></g><g class="mark-text role-axis-title" style="pointer-events: none;"><text text-anchor="middle" transform="translate(120,36)" style="font-family: sans-serif; font-size: 11px; font-weight: bold; fill: #000; opacity: 1;">Amino acid position</text></g></g><path class="foreground" d="" style="pointer-events: none; display: none; fill: none;"></path></g></g></g><path class="foreground" d="" style="display: none; fill: none;"></path></g></g></g></svg>