<svg class="marks" width="174" height="145" viewBox="0 0 174 145" version="1.1" xmlns="http://www.w3.org/2000/svg" xmlns:xlink="http://www.w3.org/1999/xlink"><rect width="174" height="145" style="fill: white;"></rect><g transform="translate(59,22)"><g class="mark-group role-frame root"><g transform="translate(0,0)"><path class="background" d="M0.5,0.5h60v80h-60Z" style="fill: none; stroke: #ddd;"></path><g><g class="mark-group role-axis"><g transform="translate(0.5,0.5)"><path class="background" d="M0,0h0v0h0Z" style="pointer-events: none; fill: none;"></path><g><g class="mark-rule role-axis-grid" style="pointer-events: none;"><line transform="translate(0,10)" x2="60" y2="0" style="fill: none; stroke: #ddd; stroke-width: 1; opacity: 1;"></line><line transform="translate(0,30)" x2="60" y2="0" style="fill: none; stroke: #ddd; stroke-width: 1; opacity: 1;"></line><line transform="translate(0,50)" x2="60" y2="0" style="fill: none; stroke: #ddd; stroke-width: 1; opacity: 1;"></line><line transform="translate(0,70)" x2="60" y2="0" style="fill: none; stroke: #ddd; stroke-width: 1; opacity: 1;"></line></g></g><path class="foreground" d="" style="pointer-events: none; display: none; fill: none;"></path></g></g><g class="mark-group role-axis"><g transform="translate(0.5,0.5)"><path class="background" d="M0,0h0v0h0Z" style="pointer-events: none; fill: none;"></path><g><g class="mark-rule role-axis-tick" style="pointer-events: none;"><line transform="translate(0,10)" x2="-5" y2="0" style="fill: none; stroke: #888; stroke-width: 1; opacity: 1;"></line><line transform="translate(0,30)" x2="-5" y2="0" style="fill: none; stroke: #888; stroke-width: 1; opacity: 1;"></line><line transform="translate(0,50)" x2="-5" y2="0" style="fill: none; stroke: #888; stroke-width: 1; opacity: 1;"></line><line transform="translate(0,70)" x2="-5" y2="0" style="fill: none; stroke: #888; stroke-width: 1; opacity: 1;"></line></g><g class="mark-text role-axis-label" style="pointer-events: none;"><text text-anchor="end" transform="translate(-7,13)" style="font-family: sans-serif; font-size: 10px; fill: #000; opacity: 1;">seq1</text><text text-anchor="end" transform="translate(-7,33)" style="font-family: sans-serif; font-size: 10px; fill: #000; opacity: 1;"> seq2</text><text text-anchor="end" transform="translate(-7,53)" style="font-family: sans-serif; font-size: 10px; fill: #000; opacity: 1;">  seq3</text><text text-anchor="end" transform="translate(-7,73)" style="font-family: sans-serif; font-size: 10px; fill: #000; opacity: 1;">   seq4</text></g><g class="mark-rule role-axis-domain" style="pointer-events: none;"><line transform="translate(0,0)" x2="0" y2="80" style="fill: none; stroke: #888; stroke-width: 1; opacity: 1;"></line></g><g class="mark-text role-axis-title" style="pointer-events: none;"><text text-anchor="middle" transform="translate(-43,40) rotate(-90) translate(0,-2)" style="font-family: sans-serif; font-size: 11px; font-weight: bold; fill: #000; opacity: 1;">mAb</text></g></g><path class="foreground" d="" style="pointer-events: none; display: none; fill: none;"></path></g></g><g class="mark-rect role-mark layer_0_marks"><path d="M15,0h5v80h-5Z" style="fill: #169cf5; opacity: 0.25;"></path><path d="M20,0h5v80h-5Z" style="fill: #169cf5; opacity: 0.25;"></path><path d="M35,0h5v80h-5Z" style="fill: #169cf5; opacity: 0.25;"></path><path d="M40,0h5v80h-5Z" style="fill: #169cf5; opacity: 0.25;"></path><path d="M45,0h5v80h-5Z" style="fill: #169cf5; opacity: 0.25;"></path><path d="M50,0h5v80h-5Z" style="fill: #169cf5; opacity: 0.25;"></path><path d="M55,0h5v80h-5Z" style="fill: #169cf5; opacity: 0.25;"></path></g><g class="mark-rect role-mark layer_1_marks"><path d="M0,0h5v80h-5Z" style="fill: #f5e216; opacity: 0.25;"></path><path d="M5,0h5v80h-5Z" style="fill: #f5e216; opacity: 0.25;"></path><path d="M10,0h5v80h-5Z" style="fill: #f5e216; opacity: 0.25;"></path><path d="M25,0h5v80h-5Z" style="fill: #f5e216; opacity: 0.25;"></path><path d="M30,0h5v80h-5Z" style="fill: #f5e216; opacity: 0.25;"></path></g><g class="mark-rect role-mark layer_2_marks"><path d="M1.5,2.5h2v15h-2Z" style="fill: none; opacity: 1;"></path><path d="M6.5,2.5h2v15h-2Z" style="fill: black; opacity: 1;"></path><path d="M11.5,2.5h2v15h-2Z" style="fill: none; opacity: 1;"></path><path d="M16.5,2.5h2v15h-2Z" style="fill: none; opacity: 1;"></path><path d="M21.5,2.5h2v15h-2Z" style="fill: none; opacity: 1;"></path><path d="M26.5,2.5h2v15h-2Z" style="fill: none; opacity: 1;"></path><path d="M31.5,2.5h2v15h-2Z" style="fill: none; opacity: 1;"></path><path d="M36.5,2.5h2v15h-2Z" style="fill: none; opacity: 1;"></path><path d="M41.5,2.5h2v15h-2Z" style="fill: black; opacity: 1;"></path><path d="M46.5,2.5h2v15h-2Z" style="fill: black; opacity: 1;"></path><path d="M51.5,2.5h2v15h-2Z" style="fill: none; opacity: 1;"></path><path d="M56.5,2.5h2v15h-2Z" style="fill: none; opacity: 1;"></path><path d="M1.5,22.5h2v15h-2Z" style="fill: none; opacity: 1;"></path><path d="M6.5,22.5h2v15h-2Z" style="fill: none; opacity: 1;"></path><path d="M11.5,22.5h2v15h-2Z" style="fill: none; opacity: 1;"></path><path d="M16.5,22.5h2v15h-2Z" style="fill: none; opacity: 1;"></path><path d="M21.5,22.5h2v15h-2Z" style="fill: none; opacity: 1;"></path><path d="M26.5,22.5h2v15h-2Z" style="fill: none; opacity: 1;"></path><path d="M31.5,22.5h2v15h-2Z" style="fill: none; opacity: 1;"></path><path d="M36.5,22.5h2v15h-2Z" style="fill: none; opacity: 1;"></path><path d="M41.5,22.5h2v15h-2Z" style="fill: black; opacity: 1;"></path><path d="M46.5,22.5h2v15h-2Z" style="fill: black; opacity: 1;"></path><path d="M51.5,22.5h2v15h-2Z" style="fill: none; opacity: 1;"></path><path d="M56.5,22.5h2v15h-2Z" style="fill: none; opacity: 1;"></path><path d="M1.5,42.5h2v15h-2Z" style="fill: none; opacity: 1;"></path><path d="M6.5,42.5h2v15h-2Z" style="fill: none; opacity: 1;"></path><path d="M11.5,42.5h2v15h-2Z" style="fill: none; opacity: 1;"></path><path d="M16.5,42.5h2v15h-2Z" style="fill: none; opacity: 1;"></path><path d="M21.5,42.5h2v15h-2Z" style="fill: none; opacity: 1;"></path><path d="M26.5,42.5h2v15h-2Z" style="fill: none; opacity: 1;"></path><path d="M31.5,42.5h2v15h-2Z" style="fill: none; opacity: 1;"></path><path d="M36.5,42.5h2v15h-2Z" style="fill: none; opacity: 1;"></path><path d="M41.5,42.5h2v15h-2Z" style="fill: none; opacity: 1;"></path><path d="M46.5,42.5h2v15h-2Z" style="fill: none; opacity: 1;"></path><path d="M51.5,42.5h2v15h-2Z" style="fill: none; opacity: 1;"></path><path d="M56.5,42.5h2v15h-2Z" style="fill: none; opacity: 1;"></path><path d="M1.5,62.5h2v15h-2Z" style="fill: none; opacity: 1;"></path><path d="M6.5,62.5h2v15h-2Z" style="fill: none; opacity: 1;"></path><path d="M11.5,62.5h2v15h-2Z" style="fill: none; opacity: 1;"></path><path d="M16.5,62.5h2v15h-2Z" style="fill: none; opacity: 1;"></path><path d="M21.5,62.5h2v15h-2Z" style="fill: none; opacity: 1;"></path><path d="M26.5,62.5h2v15h-2Z" style="fill: none; opacity: 1;"></path><path d="M31.5,62.5h2v15h-2Z" style="fill: none; opacity: 1;"></path><path d="M36.5,62.5h2v15h-2Z" style="fill: none; opacity: 1;"></path><path d="M41.5,62.5h2v15h-2Z" style="fill: none; opacity: 1;"></path><path d="M46.5,62.5h2v15h-2Z" style="fill: none; opacity: 1;"></path><path d="M51.5,62.5h2v15h-2Z" style="fill: none; opacity: 1;"></path><path d="M56.5,62.5h2v15h-2Z" style="fill: none; opacity: 1;"></path></g><g class="mark-group role-title"><g transform="translate(30,-17)"><path class="background" d="M0,0h0v0h0Z" style="pointer-events: none; fill: none;"></path><g><g class="mark-text role-title-text" style="pointer-events: none;"><text text-anchor="middle" transform="translate(0,10)" style="font-family: sans-serif; font-size: 13px; font-weight: bold; fill: #000; opacity: 1;">lineage 1 heavy chain</text></g></g><path class="foreground" d="" style="pointer-events: none; display: none; fill: none;"></path></g></g><g class="mark-group role-axis"><g transform="translate(0.5,80.5)"><path class="background" d="M0,0h0v0h0Z" style="pointer-events: none; fill: none;"></path><g><g class="mark-rule role-axis-tick" style="pointer-events: none;"><line transform="translate(2,0)" x2="0" y2="5" style="fill: none; stroke: #888; stroke-width: 1; opacity: 1;"></line><line transform="translate(7,0)" x2="0" y2="5" style="fill: none; stroke: #888; stroke-width: 1; opacity: 1;"></line><line transform="translate(12,0)" x2="0" y2="5" style="fill: none; stroke: #888; stroke-width: 1; opacity: 1;"></line><line transform="translate(17,0)" x2="0" y2="5" style="fill: none; stroke: #888; stroke-width: 1; opacity: 1;"></line><line transform="translate(22,0)" x2="0" y2="5" style="fill: none; stroke: #888; stroke-width: 1; opacity: 1;"></line><line transform="translate(27,0)" x2="0" y2="5" style="fill: none; stroke: #888; stroke-width: 1; opacity: 1;"></line><line transform="translate(32,0)" x2="0" y2="5" style="fill: none; stroke: #888; stroke-width: 1; opacity: 1;"></line><line transform="translate(37,0)" x2="0" y2="5" style="fill: none; stroke: #888; stroke-width: 1; opacity: 1;"></line><line transform="translate(42,0)" x2="0" y2="5" style="fill: none; stroke: #888; stroke-width: 1; opacity: 1;"></line><line transform="translate(47,0)" x2="0" y2="5" style="fill: none; stroke: #888; stroke-width: 1; opacity: 1;"></line><line transform="translate(52,0)" x2="0" y2="5" style="fill: none; stroke: #888; stroke-width: 1; opacity: 1;"></line><line transform="translate(57,0)" x2="0" y2="5" style="fill: none; stroke: #888; stroke-width: 1; opacity: 1;"></line></g><g class="mark-text role-axis-label" style="pointer-events: none;"><text text-anchor="end" transform="translate(2,7) rotate(270) translate(0,4)" style="font-family: sans-serif; font-size: 12px; fill: #000; opacity: 1;">0</text><text text-anchor="end" transform="translate(7,7) rotate(270) translate(0,4)" style="font-family: sans-serif; font-size: 12px; fill: #000; opacity: 0;">1</text><text text-anchor="end" transform="translate(12,7) rotate(270) translate(0,4)" style="font-family: sans-serif; font-size: 12px; fill: #000; opacity: 0;">2</text><text text-anchor="end" transform="translate(17,7) rotate(270) translate(0,4)" style="font-family: sans-serif; font-size: 12px; fill: #000; opacity: 0;">3</text><text text-anchor="end" transform="translate(22,7) rotate(270) translate(0,4)" style="font-family: sans-serif; font-size: 12px; fill: #000; opacity: 0;">4</text><text text-anchor="end" transform="translate(27,7) rotate(270) translate(0,4)" style="font-family: sans-serif; font-size: 12px; fill: #000; opacity: 0;">5</text><text text-anchor="end" transform="translate(32,7) rotate(270) translate(0,4)" style="font-family: sans-serif; font-size: 12px; fill: #000; opacity: 0;">6</text><text text-anchor="end" transform="translate(37,7) rotate(270) translate(0,4)" style="font-family: sans-serif; font-size: 12px; fill: #000; opacity: 0;">7</text><text text-anchor="end" transform="translate(42,7) rotate(270) translate(0,4)" style="font-family: sans-serif; font-size: 12px; fill: #000; opacity: 0;">8</text><text text-anchor="end" transform="translate(47,7) rotate(270) translate(0,4)" style="font-family: sans-serif; font-size: 12px; fill: #000; opacity: 0;">9</text><text text-anchor="end" transform="translate(52,7) rotate(270) translate(0,4)" style="font-family: sans-serif; font-size: 12px; fill: #000; opacity: 0;">10</text><text text-anchor="end" transform="translate(57,7) rotate(270) translate(0,4)" style="font-family: sans-serif; font-size: 12px; fill: #000; opacity: 1;">11</text></g><g class="mark-rule role-axis-domain" style="pointer-events: none;"><line transform="translate(0,0)" x2="60" y2="0" style="fill: none; stroke: #888; stroke-width: 1; opacity: 1;"></line></g><g class="mark-text role-axis-title" style="pointer-events: none;"><text text-anchor="middle" transform="translate(30,36)" style="font-family: sans-serif; font-size: 11px; font-weight: bold; fill: #000; opacity: 1;">Amino acid position</text></g></g><path class="foreground" d="" style="pointer-events: none; display: none; fill: none;"></path></g></g></g><path class="foreground" d="" style="display: none; fill: none;"></path></g></g></g></svg>